<svg width="660" height="46" viewBox="0 0 660 46" fill="none" xmlns="http://www.w3.org/2000/svg">
<path d="M567.552 38.9805C569.112 38.9805 570.372 40.2605 570.372 41.8005C570.372 43.3605 569.112 44.6405 567.552 44.6405C565.992 44.6405 564.732 43.3605 564.732 41.8005C564.732 40.2605 565.992 38.9805 567.552 38.9805ZM567.552 40.2205C566.672 40.2205 565.972 40.9405 565.972 41.8005C565.972 42.6805 566.672 43.3805 567.552 43.3805C568.412 43.3805 569.132 42.6805 569.132 41.8005C569.132 40.9405 568.432 40.2205 567.552 40.2205Z" fill="black"/>
<path d="M556.096 29.1005C555.996 27.7605 555.936 27.2005 555.816 26.5605L559.216 27.0005C559.536 27.0405 559.716 27.0805 559.716 27.2405C559.716 27.4405 559.476 27.5205 559.316 27.5605C559.276 27.9605 559.236 28.5605 559.216 28.9605C561.576 28.8805 564.396 28.7605 565.856 28.6605C565.836 29.0005 565.816 29.8005 565.816 30.2605C565.816 30.7405 565.836 31.4005 565.876 31.8805C563.976 31.7805 561.936 31.7205 560.736 31.7205H559.276C559.256 32.0605 559.256 32.4005 559.256 32.7405C559.256 33.1405 559.256 33.5405 559.296 33.9405C560.116 34.9605 560.456 36.5005 560.456 37.7805C560.456 40.8205 558.416 44.0405 555.816 45.5005C554.976 44.7005 553.916 43.9805 552.896 43.4405C554.216 42.9005 555.976 41.9205 556.576 40.5605C556.096 40.9405 555.576 41.0405 554.976 41.0405C552.696 41.0405 551.976 39.1405 551.976 37.1605C551.976 35.9805 552.316 34.7205 553.196 33.8805C553.856 33.2405 554.856 32.9405 555.576 32.9405C555.776 32.9405 556.056 32.9605 556.156 32.9805C556.176 32.6405 556.176 32.1805 556.176 31.8605C553.496 32.0405 550.836 32.3605 548.196 32.9005L547.976 29.5205C549.156 29.5205 551.256 29.4005 556.096 29.1005ZM555.756 35.5205C554.936 35.5205 554.596 36.2805 554.596 37.0005C554.596 37.6205 554.816 38.6805 555.616 38.6805C556.396 38.6805 556.596 37.3405 556.596 36.7605C556.596 36.2405 556.416 35.5205 555.756 35.5205Z" fill="black"/>
<path d="M537.202 29.1407C537.202 28.3207 537.202 27.5007 537.122 26.6807L540.602 27.3007C540.822 27.3407 540.962 27.4007 540.962 27.5607C540.962 27.7807 540.762 27.8207 540.602 27.8407C540.562 28.1807 540.522 28.6607 540.502 29.0207C542.282 29.0207 544.342 29.0207 546.022 29.1407V32.1207C543.902 31.9407 542.442 31.9407 540.402 31.9407V34.1407C542.122 33.9807 543.842 33.6807 545.482 33.2007V36.1807C543.862 36.5407 542.142 36.7007 540.482 36.8407C540.482 37.4007 540.502 38.0407 540.522 38.5807C542.262 38.8807 545.822 40.2007 547.202 41.2607C546.582 41.8607 545.682 42.8807 544.982 43.7607C543.862 42.8007 542.082 41.7407 540.702 41.2407V41.6807C540.702 44.1207 538.502 44.6407 536.502 44.6407C535.042 44.6407 533.342 44.3207 532.202 43.3607C531.562 42.8407 531.142 42.2207 531.142 41.3807C531.142 39.9807 532.302 39.1407 533.522 38.7007C534.502 38.3407 535.782 38.1807 536.662 38.1807C536.862 38.1807 537.062 38.1807 537.342 38.2007C537.342 37.9807 537.342 37.5607 537.322 37.0207C536.382 37.0407 536.082 37.0407 535.842 37.0407C534.582 37.0407 531.722 36.8007 531.722 35.1007C531.722 34.2007 532.542 33.3407 533.122 32.7207L535.322 33.2207C535.022 33.5807 534.922 33.7207 534.922 33.8807C534.922 34.3807 535.862 34.3807 536.402 34.3807C536.682 34.3807 537.002 34.3807 537.242 34.3607C537.222 33.5007 537.222 33.1007 537.222 32.0607C535.122 32.1407 533.022 32.3807 530.942 32.6607V29.5007C532.722 29.3407 535.142 29.2207 537.202 29.1407ZM537.342 40.5807C537.042 40.5207 536.762 40.5007 536.462 40.5007C535.942 40.5007 534.442 40.6007 534.442 41.3207C534.442 41.9407 535.442 42.0407 535.882 42.0407C536.722 42.0407 537.362 41.7807 537.362 40.8407C537.362 40.8007 537.362 40.7607 537.342 40.5807Z" fill="black"/>
<path d="M512.077 27.7207L515.337 28.6407C515.597 28.7207 515.737 28.7807 515.737 28.9407C515.737 29.1807 515.537 29.2407 515.317 29.2607C514.617 31.2607 514.197 33.1607 514.197 35.2807C514.197 36.5207 514.377 38.0807 515.097 39.1207C515.197 39.2607 515.357 39.4207 515.537 39.4207C516.177 39.4207 517.057 37.4007 517.477 36.4007C518.057 37.2007 518.757 37.9407 519.577 38.5207C519.037 39.8007 518.397 41.0607 517.517 42.1607C516.977 42.8007 516.077 43.7607 515.177 43.7607C514.537 43.7607 513.737 43.1007 513.297 42.5807C511.597 40.5807 511.097 37.8207 511.097 35.3207C511.097 32.7007 511.537 30.2807 512.077 27.7207ZM522.417 30.4207L524.997 28.7807C527.197 31.7207 528.697 35.1607 529.037 38.8407C527.917 39.2607 526.837 39.7807 525.777 40.3207C525.577 36.5407 524.557 33.5407 522.417 30.4207Z" fill="black"/>
<path d="M507.96 26.2607C508.48 26.7007 509.32 27.6207 509.68 28.1807C509.32 28.4407 508.78 28.9007 508.46 29.2207C507.9 28.4807 507.5 28.0207 506.74 27.2807L507.96 26.2607ZM498.6 31.3007C498.02 30.2607 497.52 29.3007 496.94 28.1207L500.14 27.0407C500.62 28.2007 501.1 29.3407 501.5 30.1407C502.5 29.6207 503.36 29.1407 504.28 28.5007L505.96 31.0007C505.12 31.6207 503.9 32.1807 502.92 32.6007C504.26 34.7607 505.5 36.0407 507.52 37.5207L505.5 39.6207C503.84 38.8407 502.6 38.4407 500.76 38.4407C499.64 38.4407 497.04 38.6807 497.04 40.2407C497.04 41.0807 497.96 41.5607 498.66 41.7407C499.4 41.9407 500.1 41.9807 500.76 41.9807C502.54 41.9807 504.24 41.6807 505.88 41.0007C506.02 41.9407 506.26 43.1807 506.52 44.1007C504.76 44.8007 502.64 45.0407 500.76 45.0407C498.94 45.0407 496.9 44.7807 495.4 43.6807C494.34 42.8807 493.62 41.8407 493.62 40.4607C493.62 38.7207 494.5 37.6607 495.98 36.8607C497.36 36.1207 499.18 35.9407 500.42 35.9407C500.78 35.9407 501.14 35.9607 501.66 36.0407C501.04 35.3007 500.54 34.5807 500.04 33.7607C497.86 34.4807 495.08 35.1807 492.8 35.3607L492.16 32.3407C494.6 32.2207 496.26 32.0607 498.6 31.3007ZM506.4 27.6007C507.02 28.1807 507.58 28.8607 508.08 29.5807C507.68 29.9007 507.14 30.3607 506.74 30.7207C506.28 30.0407 505.66 29.2407 505.08 28.6407L506.4 27.6007Z" fill="black"/>
<path d="M489.128 26C489.788 26.6 490.408 27.26 491.008 27.96C490.528 28.36 490.088 28.82 489.728 29.32C489.328 28.76 488.508 27.84 487.988 27.36L489.128 26ZM487.588 27.7C488.168 28.24 488.968 29.16 489.408 29.8C488.948 30.26 488.588 30.7 488.228 31.24C487.448 30.24 487.168 29.92 486.308 29.02L487.588 27.7ZM474.608 27.96C475.888 28.18 478.228 28.22 479.588 28.22C481.448 28.22 483.328 28.04 485.168 27.76L486.708 30.82C485.008 31.5 482.868 32.7 481.668 34.08C481.128 33.58 480.228 32.84 479.568 32.36C480.048 31.92 480.548 31.48 481.068 31.06C479.408 31.18 477.188 31.3 475.528 31.3H474.768L474.608 27.96ZM476.068 35.5L478.308 37.4C477.788 37.86 476.748 38.88 476.748 39.62C476.748 40.98 479.368 41.02 480.328 41.02C483.048 41.02 485.768 40.6 488.348 39.82C488.388 40.98 488.568 42.08 488.868 43.22C486.508 43.88 483.508 44.14 481.048 44.14C479.228 44.14 477.408 44.08 475.708 43.4C474.328 42.84 473.168 41.72 473.168 40.16C473.168 38.32 474.788 36.64 476.068 35.5Z" fill="black"/>
<path d="M468.592 27.2007L470.132 26.2207C470.752 26.8207 471.352 27.5407 471.812 28.2607C471.292 28.6207 470.692 29.0407 470.192 29.4007C469.672 28.5007 469.312 27.9607 468.592 27.2007ZM458.012 31.1607C458.432 29.2607 458.592 28.0207 458.612 26.7007L461.872 27.5207C462.292 27.6207 462.352 27.6807 462.352 27.8607C462.352 28.0607 462.172 28.1207 461.832 28.1407C461.612 29.0407 461.392 29.8807 461.172 30.6607H461.532C465.212 30.6607 465.912 33.5207 465.912 36.5807C465.912 38.6607 465.532 41.6207 464.252 43.3007C463.452 44.3607 462.192 44.6207 460.952 44.6207C460.352 44.6207 459.892 44.5407 459.332 44.3807C459.332 42.8807 459.312 42.5807 458.912 41.1207C459.752 41.3607 460.452 41.5207 461.012 41.5207C462.792 41.5207 462.872 37.1807 462.872 35.9207C462.872 34.6007 462.492 33.6607 460.992 33.6607C460.832 33.6607 460.532 33.6807 460.392 33.7007C459.372 37.5007 457.872 41.1607 455.832 44.5207C454.952 43.7807 454.012 43.3407 452.952 42.9207C454.692 40.2807 456.212 37.4207 457.172 34.4007C456.092 34.7207 455.332 35.0007 454.332 35.4807L453.392 32.1007C454.472 31.9807 455.672 31.7207 458.012 31.1607ZM466.672 28.4607L468.132 27.4607C468.772 28.1207 469.252 28.6807 469.772 29.4407C469.492 29.6207 468.672 30.2207 468.312 30.5007C467.972 30.0207 467.052 28.8807 466.672 28.4607ZM464.952 31.0807L467.012 29.9407C468.152 31.0807 469.392 32.4607 470.252 33.8007C470.752 34.5607 471.212 35.3807 471.212 36.3207C471.212 37.7407 469.632 38.4007 468.272 38.9007C467.892 38.0607 467.272 37.0007 466.752 36.2407C467.412 36.0607 467.772 35.9607 467.772 35.4607C467.772 34.4807 465.672 31.8407 464.952 31.0807Z" fill="black"/>
<path d="M446.671 33.76V35.12H437.611V34.02C436.411 34.92 435.651 35.42 434.311 36.14C433.751 35.2 433.011 34.38 432.231 33.62C435.851 32.14 438.451 29.9 440.391 26.5L443.991 26.76C444.171 26.78 444.311 26.82 444.311 27C444.311 27.1 444.251 27.18 443.991 27.38C444.611 28.48 446.331 29.96 447.391 30.74C448.571 31.6 450.771 32.86 452.151 33.36C451.411 34.04 450.611 34.98 450.271 35.94C449.011 35.32 447.811 34.56 446.671 33.76ZM445.051 32.56C443.751 31.54 443.131 30.86 442.071 29.62C440.771 31.14 440.251 31.72 439.331 32.56H445.051ZM445.431 44.2H438.831V45.08H435.891V36.36H448.391V45.08H445.431V44.2ZM445.431 41.58V38.96H438.831V41.58H445.431Z" fill="black"/>
<path d="M425.091 39.4203C423.811 41.6403 422.071 43.4403 419.831 44.7203C419.151 43.8803 418.991 43.7203 418.071 43.1203C419.891 42.2603 421.551 41.0603 422.731 39.4203H421.951C421.231 40.3203 420.491 41.1203 419.591 41.8403C418.971 41.2403 418.531 40.8403 417.711 40.5003C418.311 40.0603 418.611 39.8003 418.831 39.6003C417.571 40.1603 415.731 40.8403 414.451 41.2603C414.431 41.5803 414.371 41.7803 414.151 41.7803C413.951 41.7803 413.891 41.6003 413.831 41.3203L413.151 38.5003C413.971 38.4003 414.631 38.2603 415.411 38.0803V33.5403H413.351V30.9403H415.411V26.7803L418.371 26.9403C418.711 26.9603 418.791 26.9803 418.791 27.1603C418.791 27.3403 418.651 27.4203 418.371 27.5403V30.9403H420.151V33.5403H418.371V37.1803C418.791 37.0203 419.211 36.8403 419.631 36.6403H419.491V34.6203H431.611V36.6403H423.871C423.811 36.7603 423.611 37.1003 423.491 37.2803H431.471C431.471 38.9003 431.451 43.2803 430.131 44.3203C429.291 44.9803 427.831 44.9803 426.811 44.9803C426.731 44.2203 426.591 43.5003 426.271 42.8203C425.571 43.7803 424.791 44.5203 423.891 45.3203C423.351 44.7603 423.031 44.5603 421.771 44.0403C423.511 42.8003 424.931 41.2603 425.991 39.4203H425.091ZM430.211 26.9203V33.9603H420.871V26.9203H430.211ZM427.511 29.6803V29.0003H423.571V29.6803H427.511ZM427.511 31.2803H423.571V31.9603H427.511V31.2803ZM421.211 36.6403H420.131C420.031 37.1603 419.991 37.7403 419.991 38.2603V38.4203C420.471 37.8403 420.831 37.3003 421.211 36.6403ZM426.711 42.2003C426.911 42.2203 427.251 42.2403 427.411 42.2403C428.151 42.2403 428.271 42.0203 428.431 41.3203C428.571 40.7003 428.651 40.0603 428.671 39.4203H428.291C427.771 40.4803 427.371 41.2203 426.711 42.2003Z" fill="black"/>
<path d="M397.025 28.1204C397.585 28.1404 397.685 28.1404 397.845 28.1404C400.565 28.1404 404.505 27.8604 407.025 26.8604L408.625 29.0403C407.485 29.8004 404.725 32.4404 403.725 33.5004C404.505 33.3204 405.305 33.2004 406.125 33.2004C409.205 33.2004 411.645 35.2604 411.645 38.4404C411.645 42.6804 407.745 44.7804 403.925 44.7804C402.245 44.7804 400.325 44.3604 399.365 42.8604C399.065 42.4004 398.925 41.8604 398.925 41.3404C398.925 39.2204 400.945 38.1404 402.845 38.1404C404.685 38.1404 406.685 39.1804 407.145 41.0804C408.025 40.6204 408.465 39.6804 408.465 38.7204C408.465 37.9204 408.145 37.1404 407.605 36.5804C406.985 35.9604 405.985 35.8004 405.145 35.8004C401.865 35.8004 399.705 37.9204 397.125 40.6804L394.725 38.3404C396.845 36.8804 401.285 32.6004 402.845 30.5604C401.565 30.8404 400.005 31.0204 397.505 31.2604L397.025 28.1204ZM404.565 42.2604C404.345 41.3004 403.625 40.6404 402.605 40.6404C402.125 40.6404 401.765 40.8404 401.765 41.3604C401.765 42.1604 402.945 42.4204 403.565 42.4204C403.905 42.4204 404.225 42.3604 404.565 42.2604Z" fill="black"/>
<path d="M384.136 29.3805C384.896 29.2005 385.536 29.0005 386.296 28.7205C386.276 28.9805 386.256 29.4805 386.256 29.8405C386.256 30.2605 386.276 30.9405 386.356 31.7005C385.296 32.0005 384.236 32.2405 383.156 32.4005C382.136 35.2805 380.456 39.4405 378.776 41.9205C377.836 41.4405 376.796 40.9805 375.776 40.7205C377.396 38.4205 378.856 35.4605 379.816 32.8205C379.516 32.8405 378.256 32.8805 377.896 32.8805C377.676 32.8805 377.076 32.9005 376.816 32.9205L376.436 29.8605C377.216 29.9605 377.856 30.0205 378.656 30.0205C379.336 30.0205 380.016 29.9805 380.696 29.9205C380.996 28.8005 381.256 27.6605 381.436 26.5205L384.576 27.5005C384.836 27.5805 384.956 27.6605 384.956 27.8205C384.956 28.0405 384.696 28.0605 384.536 28.0605C384.396 28.5605 384.236 29.0805 384.136 29.3805ZM388.296 30.1005C390.216 30.7405 391.976 31.4205 393.556 32.7005C392.936 33.4405 392.256 34.4605 391.736 35.2805C390.436 34.1405 388.356 33.1805 386.716 32.7005L388.296 30.1005ZM386.936 33.9205L389.376 35.3205C388.916 35.9805 388.656 36.4405 388.656 37.2805C388.656 37.8805 388.756 38.6405 388.856 39.2405C390.096 39.7605 392.056 40.8405 393.096 41.6805C392.516 42.2805 391.716 43.3805 391.256 44.0805C390.256 43.2805 389.576 42.7605 388.956 42.4005C388.516 44.6005 386.736 44.8405 384.836 44.8405C383.436 44.8405 382.156 44.5805 381.076 43.6205C380.456 43.0605 380.216 42.3805 380.216 41.5805C380.216 40.4205 380.796 39.4805 381.776 38.9205C382.536 38.4605 383.456 38.3805 384.316 38.3805C384.756 38.3805 385.196 38.4005 385.636 38.4405C385.576 37.7205 385.536 37.0605 385.536 36.7005C385.536 35.7805 386.156 34.4405 386.936 33.9205ZM386.056 41.1605C385.576 40.9205 384.956 40.7605 384.416 40.7605C383.956 40.7605 383.136 40.9805 383.136 41.5805C383.136 42.2205 384.076 42.3205 384.556 42.3205C385.436 42.3205 385.956 42.1005 386.056 41.1605Z" fill="black"/>
<path d="M365.748 33.0202C366.728 32.5402 367.728 32.0802 368.748 31.6602C370.168 31.0802 371.288 30.6602 372.728 30.1602L373.948 33.6402C371.308 33.8202 369.448 34.5002 367.068 35.5802C365.728 36.1802 362.308 38.1202 362.308 39.7802C362.308 40.3602 362.648 40.8402 363.208 41.0602C364.268 41.4802 365.788 41.5402 366.928 41.5402C368.888 41.5402 372.008 41.1402 373.828 40.4002C373.648 41.2602 373.588 42.2402 373.588 42.8802C373.588 43.1002 373.588 43.2802 373.608 43.9202C371.508 44.3202 368.968 44.5202 366.828 44.5202C364.808 44.5202 362.828 44.4202 361.008 43.4602C359.688 42.7802 358.828 41.5202 358.828 40.0402C358.828 37.3402 361.008 35.6602 363.088 34.3602C362.048 33.1802 361.868 31.9002 361.608 29.6402C361.508 28.8202 361.368 28.3602 361.068 27.5002L364.988 26.6602C364.908 27.4002 364.868 27.9602 364.868 28.7402C364.868 30.0202 365.128 31.9002 365.748 33.0202Z" fill="black"/>
<path d="M349.648 32.5602H355.868V35.4802H349.648V41.5402H356.868V44.4802H338.448V41.5402H341.068V30.2002L344.288 30.3802C344.488 30.4002 344.728 30.4402 344.728 30.6602C344.728 30.9002 344.368 31.0402 344.168 31.1002V41.5402H346.568V26.7402L349.748 26.8802C349.948 26.8802 350.188 26.9402 350.188 27.1802C350.188 27.4002 349.828 27.6002 349.648 27.6802V32.5602Z" fill="black"/>
<path d="M329.568 39.1602V44.9802H326.528V39.1602H322.468V39.9802H319.348V30.3402H326.528V26.6602L329.828 26.8402C329.968 26.8402 330.148 26.8402 330.148 27.0802C330.148 27.2802 330.008 27.3602 329.568 27.4202V30.3402H336.748V39.9802H333.688V39.1602H329.568ZM329.568 36.3002H333.688V33.0602H329.568V36.3002ZM326.528 36.3002V33.0602H322.468V36.3002H326.528Z" fill="black"/>
<path d="M313.428 33.4404C314.768 33.4404 315.868 34.5404 315.868 35.8804C315.868 37.2204 314.768 38.3204 313.428 38.3204C312.088 38.3204 310.988 37.2204 310.988 35.8804C310.988 34.5404 312.088 33.4404 313.428 33.4404Z" fill="black"/>
<path d="M299.228 40.9605C302.268 42.0405 304.888 42.2205 308.088 42.2605C307.348 43.3005 307.108 43.8605 306.908 45.1405C303.508 44.9205 300.488 44.4205 297.368 42.9805C295.548 44.3405 293.468 44.9005 291.228 45.2005C290.948 44.1805 290.268 43.1405 289.508 42.4005C291.028 42.2805 293.308 42.0405 294.668 41.3205C294.068 40.8405 293.668 40.4405 293.168 39.8805L294.588 38.4805H291.008V30.3805H297.308V29.6005H289.688V27.0205H307.968V29.6005H300.228V30.3805H306.648V38.4805H300.068C299.928 39.3805 299.708 40.1605 299.228 40.9605ZM300.228 33.5605H303.568V32.6805H300.228V33.5605ZM297.308 33.5605V32.6805H294.088V33.5605H297.308ZM300.228 35.3005V36.1805H303.568V35.3005H300.228ZM297.308 35.3005H294.088V36.1805H297.308V35.3005ZM296.628 39.5805C296.868 39.2205 296.988 38.9205 297.088 38.4805H295.328C295.748 38.8805 296.168 39.2405 296.628 39.5805Z" fill="black"/>
<path d="M278.868 30.2604C278.728 31.9804 278.408 33.2604 277.128 34.5004L279.108 35.4004C279.248 35.4604 279.328 35.5404 279.328 35.6804C279.328 35.9204 279.108 35.9604 278.708 35.9604L278.648 36.0404H284.548L285.388 37.1404C284.308 38.6004 283.168 39.9604 281.748 41.1204C283.348 41.8604 286.048 42.3804 287.808 42.3804C288.148 42.3804 288.488 42.3604 288.868 42.3204C287.908 43.4004 287.568 43.8604 286.948 45.1604C284.328 44.9804 281.548 44.1404 279.288 42.8204C277.188 43.9604 274.508 44.9004 272.148 45.3204C271.848 44.2604 271.248 43.4404 270.368 42.7804C272.548 42.7204 274.988 42.0804 276.948 41.1204C276.388 40.6004 275.828 40.0204 275.408 39.3804C274.488 40.1404 273.508 40.7804 272.468 41.3404C271.668 40.3204 271.148 39.9604 270.248 39.3404C272.648 38.4204 273.908 37.6204 275.588 35.6204C275.028 35.9204 274.608 36.0804 273.988 36.2604C273.668 35.4204 273.108 34.7804 272.428 34.2004C272.248 34.3604 272.048 34.5204 271.848 34.6604C271.168 33.8804 270.488 33.3204 269.628 32.7804C270.768 32.0804 271.728 31.3404 272.568 30.2604H270.128V27.9804H277.688V26.4404L280.828 26.5404C280.988 26.5404 281.268 26.5604 281.268 26.8004C281.268 27.0004 280.988 27.1204 280.828 27.1804V27.9804H288.428V30.2604H285.188C286.488 31.2204 287.208 32.0804 288.128 33.4004C287.268 33.8204 286.488 34.4204 285.768 35.0604C284.788 33.6604 284.268 32.9604 282.948 31.8204L285.168 30.2604H282.848V33.9604C282.848 34.5004 282.748 34.9004 282.248 35.1804C281.548 35.5404 280.388 35.6204 279.608 35.6604C279.448 34.6004 279.028 33.8804 278.388 33.0204C278.768 33.1004 279.188 33.1404 279.568 33.1404C280.148 33.1404 280.168 32.9004 280.168 32.5004V30.2604H278.868ZM276.088 30.2604H273.528L275.048 31.3204C275.188 31.4204 275.308 31.5204 275.308 31.6604C275.308 31.8804 275.028 31.9204 274.848 31.9204H274.648C274.048 32.6604 273.388 33.3604 272.668 34.0004C273.748 33.7404 274.748 33.4404 275.468 32.5204C275.948 31.9004 276.028 31.2804 276.088 30.2604ZM279.368 39.6604C279.908 39.2404 280.288 38.8804 280.648 38.2804H277.868C278.328 38.7804 278.828 39.2204 279.368 39.6604Z" fill="black"/>
<path d="M261.873 44.38C261.193 43.2 260.713 42.56 259.793 41.56C261.373 41.28 262.753 40.62 263.833 39.42C264.813 38.3 265.413 36.8 265.413 35.32C265.413 33.76 264.773 32.3 263.513 31.36C262.693 30.72 261.813 30.5 260.793 30.42C260.513 33.82 259.673 37.54 257.953 40.52C257.373 41.52 256.333 43.2 255.013 43.2C253.333 43.2 250.573 40.36 250.573 36.86C250.573 34.36 251.853 31.9 253.633 30.22C255.493 28.48 257.833 27.54 260.373 27.54C262.713 27.54 264.793 28.32 266.473 30C267.973 31.5 268.573 33.26 268.573 35.3C268.573 37.64 267.753 39.7 266.233 41.48C265.013 42.9 263.553 43.64 261.873 44.38ZM257.433 31.02C256.233 31.46 255.393 32.32 254.693 33.36C254.053 34.32 253.553 35.44 253.553 36.62C253.553 37.98 254.293 39.32 254.813 39.32C255.473 39.32 256.173 37.28 256.453 36.46C257.093 34.6 257.413 32.98 257.433 31.02Z" fill="black"/>
<path d="M241.413 28.0404H248.853V32.5404H246.233C246.873 33.0204 247.453 33.3604 248.153 33.7204C247.353 34.2004 246.493 34.8604 245.993 35.6804C244.573 34.7604 242.753 33.2404 241.653 31.9604L243.793 30.3804H235.653L237.693 31.5004C237.833 31.5804 237.933 31.6804 237.933 31.8204C237.933 32.0404 237.693 32.1004 237.513 32.1204C236.333 33.6204 235.473 34.5804 233.853 35.6404C233.213 34.7804 232.613 34.3404 231.673 33.8404C232.353 33.4404 232.973 33.0604 233.553 32.5404H230.813V28.0404H238.313V26.4404L241.413 26.5204C241.533 26.5204 241.813 26.5804 241.813 26.7604C241.813 26.9204 241.693 27.0004 241.413 27.1404V28.0404ZM233.733 32.3604C234.353 31.8004 234.913 31.0804 235.373 30.3804H233.733V32.3604ZM243.953 30.3804C244.593 31.0804 245.253 31.7404 245.993 32.3404V30.3804H243.953ZM241.413 32.5604C242.953 34.6404 247.153 37.4204 249.653 38.1004C248.713 38.9004 248.253 39.3404 247.613 40.4204C247.073 40.2604 246.633 40.0204 246.133 39.7404V44.9204H243.273V44.4604H236.573V44.9204H233.633V39.9004C233.113 40.1804 232.653 40.4204 232.093 40.6204C231.573 39.7004 230.913 39.1404 230.013 38.6004C233.473 37.1804 236.853 34.9204 238.513 31.4404L241.173 31.9404C241.373 31.9804 241.653 32.0804 241.653 32.2804C241.653 32.3804 241.533 32.4804 241.413 32.5604ZM239.713 34.7804C238.933 35.6604 238.133 36.5004 237.233 37.2804H242.433C241.473 36.5404 240.513 35.7004 239.713 34.7804ZM243.273 42.0204V39.8804H236.573V42.0204H243.273Z" fill="black"/>
<path d="M228.313 44.4406C227.793 44.9406 226.833 45.0406 226.133 45.0406C225.593 45.0406 224.913 45.0006 224.473 44.9606C224.333 43.7206 224.033 42.8206 223.413 41.7606C223.733 41.8406 224.933 42.0206 225.233 42.0206C225.693 42.0206 225.773 41.6606 225.773 41.2806V39.1806C225.193 39.7006 224.653 40.3806 224.273 41.0606C222.493 40.2406 221.133 38.6606 220.273 36.9406C219.433 38.4606 217.473 40.5806 215.953 41.4406C215.593 40.6206 215.273 40.2006 214.653 39.5606V45.0206H211.613V29.6606H218.673V26.6006L221.913 26.7206C222.193 26.7406 222.293 26.8206 222.293 27.0006C222.293 27.2006 222.133 27.2806 221.753 27.4006V29.6606H228.813V42.8006C228.813 43.4006 228.773 43.9806 228.313 44.4406ZM221.753 32.5006C221.913 34.4606 222.473 35.6006 223.893 36.9606C224.453 37.5006 225.093 37.9806 225.773 38.3606V32.5006H221.753ZM214.653 38.5806C215.633 38.0006 216.513 37.2206 217.193 36.3206C218.053 35.1806 218.413 33.9006 218.593 32.5006H214.653V38.5806Z" fill="black"/>
<path d="M205.957 26.1602L208.797 28.3602C208.957 28.4802 208.997 28.5602 208.997 28.6602C208.997 28.8002 208.877 28.8802 208.757 28.8802C208.657 28.8802 208.517 28.8402 208.417 28.8002C207.877 29.2402 207.117 29.8602 206.437 30.4202C204.297 32.2202 202.917 33.3602 201.297 34.7002C200.737 35.1602 200.597 35.3802 200.597 35.5202C200.597 35.7002 200.697 35.8002 201.177 36.0802C203.137 37.2202 207.577 40.4802 209.297 42.7802C208.337 43.6402 207.697 44.4202 206.997 45.4802C205.017 42.7002 199.797 38.6802 197.117 37.0202C196.497 36.6402 196.237 36.2002 196.237 35.7002C196.237 35.0002 196.697 34.6202 197.917 33.6802C200.717 31.5002 203.997 28.5802 205.957 26.1602Z" fill="black"/>
<path d="M184.727 29.3805C185.487 29.2005 186.127 29.0005 186.887 28.7205C186.867 28.9805 186.847 29.4805 186.847 29.8405C186.847 30.2605 186.867 30.9405 186.947 31.7005C185.887 32.0005 184.827 32.2405 183.747 32.4005C182.727 35.2805 181.047 39.4405 179.367 41.9205C178.427 41.4405 177.387 40.9805 176.367 40.7205C177.987 38.4205 179.447 35.4605 180.407 32.8205C180.107 32.8405 178.847 32.8805 178.487 32.8805C178.267 32.8805 177.667 32.9005 177.407 32.9205L177.027 29.8605C177.807 29.9605 178.447 30.0205 179.247 30.0205C179.927 30.0205 180.607 29.9805 181.287 29.9205C181.587 28.8005 181.847 27.6605 182.027 26.5205L185.167 27.5005C185.427 27.5805 185.547 27.6605 185.547 27.8205C185.547 28.0405 185.287 28.0605 185.127 28.0605C184.987 28.5605 184.827 29.0805 184.727 29.3805ZM188.887 30.1005C190.807 30.7405 192.567 31.4205 194.147 32.7005C193.527 33.4405 192.847 34.4605 192.327 35.2805C191.027 34.1405 188.947 33.1805 187.307 32.7005L188.887 30.1005ZM187.527 33.9205L189.967 35.3205C189.507 35.9805 189.247 36.4405 189.247 37.2805C189.247 37.8805 189.347 38.6405 189.447 39.2405C190.687 39.7605 192.647 40.8405 193.687 41.6805C193.107 42.2805 192.307 43.3805 191.847 44.0805C190.847 43.2805 190.167 42.7605 189.547 42.4005C189.107 44.6005 187.327 44.8405 185.427 44.8405C184.027 44.8405 182.747 44.5805 181.667 43.6205C181.047 43.0605 180.807 42.3805 180.807 41.5805C180.807 40.4205 181.387 39.4805 182.367 38.9205C183.127 38.4605 184.047 38.3805 184.907 38.3805C185.347 38.3805 185.787 38.4005 186.227 38.4405C186.167 37.7205 186.127 37.0605 186.127 36.7005C186.127 35.7805 186.747 34.4405 187.527 33.9205ZM186.647 41.1605C186.167 40.9205 185.547 40.7605 185.007 40.7605C184.547 40.7605 183.727 40.9805 183.727 41.5805C183.727 42.2205 184.667 42.3205 185.147 42.3205C186.027 42.3205 186.547 42.1005 186.647 41.1605Z" fill="black"/>
<path d="M162.327 28.7601H164.267V26.6201L167.427 26.7401C167.607 26.7401 167.887 26.8001 167.887 27.0201C167.887 27.2401 167.607 27.3801 167.427 27.4401V28.7601H173.087V31.3201H167.427V33.3201H175.087V36.0001H156.587V33.3201H159.807C159.107 32.7401 158.067 32.3201 157.207 32.0201C158.507 30.3601 159.327 28.7201 159.947 26.7201L162.847 27.5401C162.987 27.5801 163.107 27.6201 163.107 27.7401C163.107 27.9001 162.987 28.0201 162.587 28.1201C162.547 28.2401 162.387 28.6401 162.327 28.7601ZM161.167 31.3201C160.787 32.0401 160.407 32.6801 159.907 33.3201H164.267V31.3201H161.167ZM169.527 44.2201H162.147V45.1001H159.007V37.1401H172.587V45.1001H169.527V44.2201ZM169.527 41.6201V39.7401H162.147V41.6201H169.527Z" fill="black"/>
<path d="M148.927 33.6002H154.207L155.667 35.0602C154.347 37.3402 152.807 39.1602 150.947 41.0202C150.207 40.1002 149.587 39.6202 148.547 39.0802C149.527 38.3202 150.387 37.4402 151.087 36.4202H147.807V42.5402C147.807 43.1602 147.667 43.8402 147.227 44.2802C146.547 44.9602 144.907 44.9802 143.907 44.9802H143.187C143.067 43.9402 142.787 42.9202 142.207 42.0402C142.747 42.1402 143.287 42.2002 143.827 42.2002C144.727 42.2002 144.787 41.8602 144.787 41.0202V36.4202H137.107V33.6002H145.367C143.907 32.9002 142.527 32.3802 141.007 31.8402L142.907 29.7602H138.987V27.2002H152.047L153.167 28.7402C152.087 29.9002 150.127 31.2602 148.787 32.1602C149.167 32.3602 149.547 32.5802 149.907 32.8402C149.567 33.0802 149.247 33.3202 148.927 33.6002ZM146.107 30.8602C146.667 30.5002 147.087 30.2002 147.587 29.7602H143.127C144.127 30.1002 145.107 30.4602 146.107 30.8602Z" fill="black"/>
<path d="M128.783 31.0807C128.783 29.8007 128.783 28.4807 128.803 27.1807L132.323 27.7807C132.463 27.8007 132.583 27.8607 132.583 28.0007C132.583 28.2407 132.303 28.3007 132.123 28.3207C132.023 29.1207 131.963 29.9207 131.923 30.7207C132.983 30.5207 133.863 30.3207 134.883 29.9807V33.0007C133.883 33.2407 132.863 33.4607 131.843 33.6407C131.843 34.9407 131.943 36.9807 132.163 38.2407C133.363 38.6407 135.063 39.4207 135.963 40.3007C135.523 41.1007 135.183 41.8407 134.603 43.1207C133.963 42.5007 133.303 41.9607 132.463 41.6007C132.383 43.8607 130.403 44.4607 128.483 44.4607C127.203 44.4607 126.023 44.1607 125.043 43.2807C124.383 42.6807 124.063 41.8607 124.063 40.9607C124.063 38.5607 126.503 37.7407 128.523 37.7407H129.023C128.943 36.7407 128.843 35.0807 128.803 34.0407C128.043 34.1007 127.283 34.1407 126.503 34.1407C126.023 34.1407 125.523 34.1207 125.023 34.0807V30.9407C125.963 31.0607 126.863 31.1007 127.703 31.1007C128.043 31.1007 128.343 31.1007 128.783 31.0807ZM119.623 27.2407L122.823 28.2207C122.963 28.2607 123.083 28.3407 123.083 28.4607C123.083 28.7207 122.783 28.7807 122.523 28.8007C121.823 31.2407 121.323 33.9607 121.323 36.5007C121.323 37.2207 121.363 37.7807 121.463 38.5007C121.763 38.0207 122.103 37.5207 122.403 37.0807C122.783 37.8207 123.263 38.4407 123.843 39.0607C122.863 40.5207 122.163 42.1807 122.183 43.9607L119.503 44.4607C118.763 41.8407 118.423 39.1207 118.423 36.3807C118.423 33.4007 118.823 30.1207 119.623 27.2407ZM129.403 40.4207C129.003 40.2607 128.623 40.1807 128.183 40.1807C127.723 40.1807 126.783 40.3207 126.783 40.9407C126.783 41.5407 127.623 41.6807 128.083 41.6807C128.843 41.6807 129.423 41.4007 129.423 40.6807C129.423 40.6007 129.423 40.5407 129.403 40.4207Z" fill="black"/>
<path d="M108.584 33.8005L109.724 32.2005C112.004 33.3605 114.904 35.0805 116.704 36.9005C116.044 37.8405 115.424 38.7605 114.824 39.7005C112.944 37.9405 110.824 36.4805 108.584 35.2605V44.6405H105.204V26.9805L108.584 27.1405C108.924 27.1605 108.964 27.2405 108.964 27.3605C108.964 27.5605 108.724 27.6405 108.584 27.6605V33.8005Z" fill="black"/>
<path d="M85.7417 27.3008C87.5217 28.2208 89.2817 29.2008 90.7417 30.5808C90.0417 31.4408 89.4217 32.3608 88.8017 33.3008C87.2417 31.9608 85.6417 30.9408 83.7617 30.1008L85.7417 27.3008ZM84.1017 41.1208C90.2617 39.8408 95.6817 35.6608 98.9817 30.3608C99.6617 31.4808 100.142 32.1408 101.042 33.0808C99.2817 35.7008 97.3617 37.8408 94.8217 39.7408C92.4817 41.5008 89.3617 43.2208 86.5817 44.2008C86.5617 44.3808 86.5217 44.6408 86.3017 44.6408C86.1417 44.6408 86.0617 44.5008 85.9817 44.3608L84.1017 41.1208Z" fill="black"/>
<path d="M78.2618 27.8001L79.7218 26.5801C80.2818 27.0801 81.2618 28.1001 81.7018 28.7001C81.3218 29.0201 80.6218 29.7401 80.3018 30.1201C79.7418 29.3601 78.9818 28.4801 78.2618 27.8001ZM76.1818 29.7401L77.6418 28.4201C78.2418 28.8801 79.3018 29.9601 79.7418 30.5601C79.1618 31.0201 78.7618 31.4201 78.2618 31.9601C77.7218 31.2801 76.8618 30.3401 76.1818 29.7401ZM62.8818 36.2801C63.6018 35.7201 63.8818 35.4601 64.5018 34.8401C65.3018 34.0601 67.0018 32.0401 67.8218 31.0401C68.5618 30.1201 69.7018 29.0801 70.9418 29.0801C71.7218 29.0801 72.4218 29.4401 73.1018 30.1601C73.5218 30.6001 75.1818 32.5401 76.6218 34.2601C78.2018 36.1401 80.1018 37.9801 82.0618 39.5601C81.1618 40.6001 80.6618 41.2601 79.9618 42.4601C78.0018 40.6001 74.9218 37.1001 72.4418 34.0801C71.7218 33.2001 71.2218 32.6201 70.8418 32.6201C70.5818 32.6201 70.3418 32.7401 69.9618 33.1601C69.1218 34.0601 67.6018 36.0001 65.7218 38.4601C65.8018 38.5601 65.8418 38.6401 65.8418 38.7601C65.8418 38.9201 65.7418 39.0401 65.5818 39.0401C65.4618 39.0401 65.4018 38.9801 65.2218 38.8001L62.8818 36.2801Z" fill="black"/>
<path d="M57.2599 33.1208V44.6208H53.8199V35.5208C52.0399 36.6008 50.2199 37.6008 48.2799 38.3608C47.6999 37.2608 46.8199 36.2808 45.8799 35.5008C48.4799 34.7608 51.3599 33.3808 53.5799 31.8208C55.5799 30.4408 57.9999 28.2408 59.4999 26.3408L62.2399 28.5008C62.3399 28.5808 62.3999 28.7008 62.3999 28.8208C62.3999 29.0008 62.2399 29.0808 62.0799 29.0808C62.0199 29.0808 61.8599 29.0608 61.6799 29.0208C60.6199 30.3008 58.5799 32.0608 57.2599 33.1208Z" fill="black"/>
<path d="M37.9199 34.1409C40.4599 35.7809 42.6199 36.4009 45.5599 36.9809C44.8399 37.9209 44.4199 38.7209 44.0399 39.8209C43.2999 39.6809 42.5599 39.4409 41.8799 39.2009V45.0809H38.8599V44.5209H32.3399V45.0809H29.3999V39.4209C28.7599 39.6609 28.1599 39.8609 27.4999 40.0209C27.0999 38.8809 26.7799 38.3409 25.8599 37.5409C28.8199 36.8009 31.1599 36.0409 33.6799 34.2209C33.0799 33.6609 32.3399 32.8409 31.8399 32.2009C30.5399 33.5809 30.2399 33.8609 28.7199 35.2009C27.9599 34.5209 27.1599 33.9009 26.2799 33.4209C27.3799 32.8009 28.9799 31.2809 29.8399 30.3409C30.8999 29.1809 31.7599 27.8609 32.4599 26.4609L35.3399 27.1609C35.6599 27.2409 35.7599 27.2809 35.7599 27.4609C35.7599 27.7009 35.4199 27.7809 35.1799 27.8209C35.1199 27.9409 34.9599 28.2009 34.8599 28.3409H40.7399L41.7799 29.4009C40.6999 31.1409 39.3999 32.7209 37.9199 34.1409ZM35.7799 32.5409C36.3199 32.0209 36.8599 31.4809 37.2799 30.8609H34.0999C34.6199 31.4609 35.1799 32.0209 35.7799 32.5409ZM35.7599 36.0009C35.0599 36.5209 34.3399 36.9809 33.5799 37.4009H37.9199C37.1599 36.9809 36.4399 36.5009 35.7599 36.0009ZM38.8599 42.0809V39.9009H32.3399V42.0809H38.8599Z" fill="black"/>
<path d="M17.8802 29.94C17.8802 30.96 17.0402 31.82 16.0002 31.82C14.9602 31.82 14.1202 30.96 14.1202 29.94C14.1202 28.9 14.9602 28.04 16.0002 28.04C17.0402 28.04 17.8802 28.9 17.8802 29.94ZM23.4402 41.84L21.9602 43.32L16.0002 37.28L10.0402 43.32L8.56016 41.84L14.6002 35.88L8.56016 29.92L10.0402 28.44L16.0002 34.48L21.9602 28.44L23.4402 29.92L17.4002 35.88L23.4402 41.84ZM11.9402 35.88C11.9402 36.92 11.0802 37.76 10.0602 37.76C9.02016 37.76 8.16016 36.92 8.16016 35.88C8.16016 34.84 9.02016 34 10.0602 34C11.0802 34 11.9402 34.84 11.9402 35.88ZM23.8402 35.88C23.8402 36.92 22.9802 37.76 21.9402 37.76C20.9202 37.76 20.0602 36.92 20.0602 35.88C20.0602 34.84 20.9202 34 21.9402 34C22.9802 34 23.8402 34.84 23.8402 35.88ZM17.8802 41.82C17.8802 42.86 17.0402 43.72 16.0002 43.72C14.9602 43.72 14.1202 42.86 14.1202 41.82C14.1202 40.8 14.9602 39.94 16.0002 39.94C17.0402 39.94 17.8802 40.8 17.8802 41.82Z" fill="black"/>
<path d="M463.195 12.9805C464.755 12.9805 466.015 14.2605 466.015 15.8005C466.015 17.3605 464.755 18.6405 463.195 18.6405C461.635 18.6405 460.375 17.3605 460.375 15.8005C460.375 14.2605 461.635 12.9805 463.195 12.9805ZM463.195 14.2205C462.315 14.2205 461.615 14.9405 461.615 15.8005C461.615 16.6805 462.315 17.3805 463.195 17.3805C464.055 17.3805 464.775 16.6805 464.775 15.8005C464.775 14.9405 464.075 14.2205 463.195 14.2205Z" fill="black"/>
<path d="M441.509 1.7207L444.769 2.6407C445.029 2.7207 445.169 2.7807 445.169 2.9407C445.169 3.1807 444.969 3.2407 444.749 3.2607C444.049 5.2607 443.629 7.1607 443.629 9.2807C443.629 10.5207 443.809 12.0807 444.529 13.1207C444.629 13.2607 444.789 13.4207 444.969 13.4207C445.609 13.4207 446.489 11.4007 446.909 10.4007C447.489 11.2007 448.189 11.9407 449.009 12.5207C448.469 13.8007 447.829 15.0607 446.949 16.1607C446.409 16.8007 445.509 17.7607 444.609 17.7607C443.969 17.7607 443.169 17.1007 442.729 16.5807C441.029 14.5807 440.529 11.8207 440.529 9.3207C440.529 6.7007 440.969 4.2807 441.509 1.7207ZM451.849 4.4207L454.429 2.7807C456.629 5.7207 458.129 9.1607 458.469 12.8407C457.349 13.2607 456.269 13.7807 455.209 14.3207C455.009 10.5407 453.989 7.5407 451.849 4.4207Z" fill="black"/>
<path d="M428.847 4.84074C428.367 3.82074 427.847 2.66074 427.347 1.48074L430.847 0.760742C431.067 1.96074 431.307 2.72074 431.767 3.86074C433.267 3.24074 434.767 2.54074 436.067 1.54074C436.687 2.38074 437.347 3.14074 438.067 3.92074C436.707 4.90074 434.987 5.68074 433.047 6.50074C434.027 8.16074 436.007 10.8407 437.507 12.0007L435.447 13.7807C434.027 12.7607 431.867 12.2607 430.127 12.2607C429.307 12.2607 428.367 12.3407 427.627 12.7407C427.187 12.9807 426.807 13.4407 426.807 13.9407C426.807 14.5807 427.367 15.1007 427.887 15.3807C428.807 15.8807 429.927 15.9807 430.967 15.9807C432.767 15.9807 434.007 15.6607 435.667 14.9807C435.687 15.8807 435.987 17.2407 436.267 18.1207C434.607 18.6207 432.847 18.8207 431.107 18.8207C429.107 18.8207 427.127 18.5207 425.407 17.4807C424.207 16.7607 423.387 15.6207 423.387 14.2007C423.387 12.8807 424.107 11.7607 425.127 10.9807C426.407 10.0007 427.807 9.76074 429.387 9.76074C429.827 9.76074 430.607 9.80074 431.547 10.0007C431.087 9.30074 430.587 8.44074 430.107 7.56074C427.847 8.24074 425.507 8.62074 423.167 8.84074L422.127 5.74074C424.427 5.66074 426.627 5.44074 428.847 4.84074Z" fill="black"/>
<path d="M412.347 4.24031V5.52031C414.227 6.70031 414.827 7.14031 417.007 8.88031C417.727 9.46031 418.427 10.0403 419.027 10.7203C418.187 11.5203 417.707 12.0803 416.707 13.3003C415.587 11.8003 413.887 10.3403 412.347 9.26031V19.0003H409.147V4.24031H402.407V1.32031H420.707V4.24031H412.347Z" fill="black"/>
<path d="M393.087 3.5607H390.147V1.2207H400.267V1.6007C400.267 2.5807 400.147 4.6807 400.067 5.7007C400.007 6.5207 399.847 7.6807 399.487 8.4207C399.027 9.3407 398.067 9.6807 397.087 9.6807C396.727 9.6807 396.347 9.6407 395.987 9.5807C395.907 8.8207 395.807 8.3607 395.587 7.6407C395.487 7.9407 395.387 8.2807 395.307 8.6207C394.907 8.2807 394.567 8.0607 394.107 7.8207C393.247 9.1207 392.367 9.9407 391.027 10.7407C390.527 10.0607 389.927 9.5007 389.187 9.0807V11.1207H383.927V9.0007H389.187V9.0407C390.287 8.4407 391.167 7.8007 391.907 6.7607C391.347 6.5207 390.887 6.3607 390.307 6.2007L391.307 3.9407C391.867 4.1007 392.367 4.2607 392.907 4.4807C392.987 4.1607 393.047 3.8807 393.087 3.5607ZM383.927 1.2207H389.187V3.1607H383.927V1.2207ZM395.627 3.5607C395.527 4.3007 395.427 4.8407 395.207 5.5607C395.627 5.7807 395.947 5.9807 396.327 6.2807C396.187 6.4807 396.067 6.6607 395.927 6.9007C396.207 7.0207 396.487 7.1007 396.767 7.1007C397.287 7.1007 397.407 6.6807 397.467 6.2607C397.587 5.4607 397.647 4.3607 397.647 3.5607H395.627ZM382.987 3.7207H390.147V5.8807H382.987V3.7207ZM383.927 6.4207H389.187V8.4607H383.927V6.4207ZM394.927 11.8207C394.587 11.3007 394.307 10.9207 393.887 10.4807L395.487 9.1207C396.307 10.0207 397.167 11.1007 397.887 12.1007L399.407 11.2007C400.267 12.6207 400.907 14.4007 401.387 15.9807C400.307 16.2807 400.007 16.4207 399.007 16.9007C398.947 16.5607 398.867 16.1807 398.787 15.8607C398.667 16.6207 398.507 17.5407 398.047 18.1807C397.667 18.7007 396.947 18.8007 396.347 18.8007H394.447C393.007 18.8007 392.527 18.3207 392.527 16.8607V13.6007C392.267 14.9407 391.827 16.2407 391.187 17.4407C390.667 17.1007 390.387 16.9607 389.827 16.7007V18.7407H387.327V18.0407H385.927V19.0607H383.407V11.6807H389.827V14.7007C390.087 13.8407 390.267 12.9807 390.407 12.1007L392.527 12.5007V11.5407L394.927 11.8207ZM395.267 12.3607C395.167 12.4407 395.067 12.5207 394.987 12.5607V15.9007C394.987 16.2607 395.127 16.3807 395.487 16.3807C396.147 16.3807 396.167 16.0407 396.347 14.2207C397.047 14.7807 397.767 15.2207 398.667 15.3807C398.387 14.3207 398.027 13.2807 397.547 12.3207C397.047 12.5807 396.227 13.0207 395.827 13.3807C395.627 13.0407 395.447 12.7207 395.267 12.3607ZM387.327 15.7007V14.0207H385.927V15.7007H387.327Z" fill="black"/>
<path d="M378.547 10.2603H380.647V12.3803H378.547V13.1803H380.647V15.3203H378.547V16.1403H381.447V18.4203H374.447V18.9603H371.927V11.5003C371.687 11.7203 371.567 11.8203 371.347 11.9803C371.127 11.3803 370.907 10.9403 370.527 10.4403V17.3803H368.047V16.4203H367.247V18.7403H364.487V13.0603C364.387 13.1803 364.247 13.3203 364.147 13.3803C363.687 12.5603 363.087 11.7003 362.267 11.2203C364.167 9.30031 365.107 6.68031 365.607 4.08031H363.107V1.54031H370.147V4.08031H368.367C368.147 5.22031 367.787 6.58031 367.387 7.68031H370.527V9.26031C372.147 8.02031 373.087 6.18031 373.727 4.28031H372.967V6.08031H370.527V2.06031H374.267C374.387 1.48031 374.467 0.900312 374.507 0.320312L377.067 0.640312C377.207 0.660313 377.487 0.720312 377.487 0.920312C377.487 1.06031 377.327 1.18031 377.207 1.24031C377.127 1.50031 377.047 1.78031 376.987 2.06031H381.347V6.08031H379.267C379.087 6.50031 378.907 6.90031 378.707 7.30031H381.067V9.46031H378.547V10.2603ZM379.007 5.36031V4.28031H376.327C375.967 5.32031 375.567 6.34031 375.047 7.30031H375.967C376.347 6.50031 376.687 5.68031 376.927 4.84031L379.007 5.36031ZM376.027 10.2603V9.46031H374.447V10.2603H376.027ZM367.247 10.1803V13.8403H368.047V10.1803H367.247ZM376.027 12.3803H374.447V13.1803H376.027V12.3803ZM376.027 15.3203H374.447V16.1403H376.027V15.3203Z" fill="black"/>
<path d="M360.795 0C361.455 0.599999 362.075 1.26 362.675 1.96C362.195 2.36 361.755 2.82 361.395 3.32C360.995 2.76 360.175 1.84 359.655 1.36L360.795 0ZM359.255 1.7C359.835 2.24 360.635 3.16 361.075 3.8C360.615 4.26 360.255 4.7 359.895 5.24C359.115 4.24 358.835 3.92 357.975 3.02L359.255 1.7ZM346.275 1.96C347.555 2.18 349.895 2.22 351.255 2.22C353.115 2.22 354.995 2.04 356.835 1.76L358.375 4.82C356.675 5.5 354.535 6.7 353.335 8.08C352.795 7.58 351.895 6.84 351.235 6.36C351.715 5.92 352.215 5.48 352.735 5.06C351.075 5.18 348.855 5.3 347.195 5.3H346.435L346.275 1.96ZM347.735 9.5L349.975 11.4C349.455 11.86 348.415 12.88 348.415 13.62C348.415 14.98 351.035 15.02 351.995 15.02C354.715 15.02 357.435 14.6 360.015 13.82C360.055 14.98 360.235 16.08 360.535 17.22C358.175 17.88 355.175 18.14 352.715 18.14C350.895 18.14 349.075 18.08 347.375 17.4C345.995 16.84 344.835 15.72 344.835 14.16C344.835 12.32 346.455 10.64 347.735 9.5Z" fill="black"/>
<path d="M331.403 3.02039C331.803 2.18039 332.203 1.30039 332.463 0.400391L335.503 1.00039C335.703 1.04039 335.903 1.12039 335.903 1.32039C335.903 1.62039 335.583 1.66039 335.403 1.66039C335.243 1.98039 335.043 2.40039 334.943 2.64039C336.343 2.44039 337.743 2.18039 339.083 1.70039V4.66039C337.183 5.00039 335.303 5.28039 333.383 5.52039C333.123 6.00039 332.863 6.46039 332.603 6.90039C333.123 6.62039 333.743 6.50039 334.343 6.50039C335.503 6.50039 336.703 7.20039 337.263 8.20039C338.983 7.40039 340.063 6.90039 341.303 6.22039L342.483 9.42039C340.943 9.90039 339.423 10.4204 337.923 11.0404C337.963 11.6404 337.983 12.2404 337.983 12.8404C337.983 13.5004 337.963 14.1604 337.923 14.8404C337.263 14.8004 336.583 14.8004 336.183 14.8004C335.823 14.8004 335.283 14.8004 334.763 14.8404C334.843 14.0404 334.883 13.3604 334.903 12.5604C334.323 12.9204 333.203 13.6604 332.783 14.1404C332.563 14.3804 332.403 14.6404 332.403 14.9804C332.403 15.4404 332.763 15.6004 333.123 15.7004C333.743 15.8804 334.743 15.9404 335.383 15.9404C337.583 15.9404 339.763 15.5804 341.863 14.9604C341.603 15.9804 341.483 17.1004 341.483 18.1404C339.683 18.5604 337.783 18.7204 335.943 18.7204C334.163 18.7204 332.163 18.5804 330.643 17.5804C329.843 17.0404 329.363 16.1404 329.363 15.1804C329.363 13.7004 330.423 12.6404 331.483 11.7604C332.483 10.9404 333.583 10.2804 334.723 9.70039C334.463 8.98039 333.943 8.70039 333.203 8.70039C331.183 8.70039 329.763 10.8804 328.643 12.7204L325.863 11.1404C327.043 9.86039 329.023 7.26039 329.923 5.76039C329.403 5.78039 328.743 5.80039 328.143 5.80039C327.803 5.80039 327.463 5.80039 327.103 5.78039L327.123 2.88039C328.163 2.98039 329.203 3.04039 330.263 3.04039C330.643 3.04039 331.023 3.04039 331.403 3.02039Z" fill="black"/>
<path d="M310.374 1.7207H318.594C321.774 1.7207 324.454 3.5807 324.454 6.9607C324.454 10.4007 321.814 12.1407 318.594 12.1407H313.974V17.4807H310.374V1.7207ZM313.974 9.2807H318.194C319.654 9.2807 320.754 8.4607 320.754 6.9207C320.754 5.4207 319.634 4.5807 318.194 4.5807H313.974V9.2807Z" fill="black"/>
<path d="M304.532 10.8807H296.912V17.4807H293.312V1.7207H296.912V7.6807H304.532V1.7207H308.112V17.4807H304.532V10.8807Z" fill="black"/>
<path d="M276.832 14.6601H280.832V0.580078L283.972 0.800077C284.312 0.820077 284.472 0.880078 284.472 1.08008C284.472 1.32008 284.172 1.42008 283.972 1.48008V14.6601H287.892V4.40008L291.072 4.64008C291.252 4.66008 291.512 4.70008 291.512 4.92008C291.512 5.08008 291.392 5.20008 291.072 5.38008V19.0601H287.892V17.5801H276.832V19.0601H273.712V4.42008L276.912 4.52008C277.252 4.54008 277.372 4.62008 277.372 4.78008C277.372 4.94008 277.192 5.06008 276.832 5.22008V14.6601Z" fill="black"/>
<path d="M256.312 6.36027H253.732V4.30027H256.532C256.552 4.10027 256.572 3.66027 256.572 3.32027H254.252V1.28027H263.192V4.30027H263.972V1.28027H271.312L272.372 2.48027C272.092 3.14027 270.172 7.88027 270.052 8.20027C271.332 9.90027 272.272 11.3003 272.272 13.5003C272.272 14.4203 272.012 15.7003 271.292 16.3403C270.972 16.6003 270.592 16.8003 270.212 16.9203C269.332 17.2203 268.492 17.3403 267.572 17.3403C267.452 16.1803 267.332 15.4203 266.812 14.6603V19.0603H263.972V6.36027H263.192V9.44028H258.392C258.292 9.76028 258.172 10.0803 258.032 10.4003H263.192V18.4403H260.352V17.5003H258.172V18.7803H255.372V14.4003C255.072 14.6803 254.832 14.8603 254.492 15.0803C254.152 14.1203 253.612 13.2403 252.832 12.5603C254.032 11.7203 254.932 10.8003 255.532 9.44028H254.252V7.36027H256.132C256.152 7.30027 256.312 6.40027 256.312 6.36027ZM259.192 4.30027H260.652V3.32027H259.232C259.232 3.66027 259.212 4.12027 259.192 4.30027ZM266.812 4.04027V8.28027C267.432 7.34027 268.272 5.14027 268.612 4.04027H266.812ZM259.052 6.36027C259.012 6.70027 258.952 7.08027 258.892 7.36027H260.652V6.36027H259.052ZM266.812 8.52027V14.2403C267.052 14.2603 267.452 14.2803 267.772 14.2803C268.632 14.2803 269.172 14.1803 269.172 13.1203C269.172 11.5803 268.132 9.36027 266.812 8.52027ZM258.172 14.8603H260.352V12.9203H258.172V14.8603Z" fill="black"/>
<path d="M241.012 8.88059C241.752 10.0406 242.652 11.1406 243.692 12.0406V2.40059H251.972V18.3206H248.992V17.0806H246.652V18.7006H243.692V12.4406C242.732 13.0806 242.492 13.4406 241.872 14.4206C241.352 13.9206 240.992 13.4806 240.552 12.9006V19.0606H237.672V13.8006C237.152 14.6806 236.612 15.4406 235.912 16.1806C235.012 15.2606 234.532 14.8806 233.312 14.4406C235.172 12.8006 236.332 11.1606 237.272 8.88059H234.132V6.08059H237.672V4.66059C236.672 4.84059 235.952 4.96059 235.532 5.02059C235.152 4.08059 234.732 3.22059 234.132 2.40059C236.632 2.22059 239.212 1.84059 241.432 0.600586L243.452 2.86059C243.572 3.00059 243.592 3.04059 243.592 3.14059C243.592 3.22059 243.512 3.36059 243.352 3.36059C243.212 3.36059 242.872 3.24059 242.732 3.18059C242.012 3.48059 241.292 3.76059 240.552 3.98059V6.08059H243.152V8.88059H241.012ZM248.992 14.4206V5.14059H246.652V14.4206H248.992Z" fill="black"/>
<path d="M225.292 8.2409C226.652 12.2609 229.272 15.0209 233.052 16.8809C232.172 17.5609 231.312 18.3009 230.732 19.2609C227.912 18.0209 225.052 14.6409 223.712 11.9009C221.852 15.5209 219.572 17.6009 215.912 19.3409C215.392 18.1809 214.752 17.4809 213.792 16.6809C216.232 15.7409 218.012 14.7409 219.672 12.6609C220.772 11.2809 221.412 9.9809 221.792 8.2409H214.512V5.3609H222.092V0.420898L225.232 0.580899C225.432 0.600899 225.612 0.620898 225.612 0.840899C225.612 1.0009 225.432 1.1009 225.232 1.1609V5.3609H232.672V8.2409H225.292Z" fill="black"/>
<path d="M203.792 1.84082L207.092 2.02082C207.392 2.04082 207.472 2.12082 207.472 2.24082C207.472 2.42082 207.292 2.52082 207.092 2.60082V12.3408C209.072 11.0408 210.892 9.04082 212.272 7.10082C212.652 8.32082 213.072 9.10082 213.812 10.1008C212.472 11.8608 210.052 14.3608 207.932 15.8408C207.112 16.4208 206.632 16.7808 205.832 17.4408L203.712 16.0608C203.752 15.6008 203.792 15.0208 203.792 14.4808V1.84082ZM198.672 2.02082L201.992 2.18082C202.312 2.20082 202.452 2.26082 202.452 2.46082C202.452 2.66082 202.292 2.76082 202.112 2.84082V7.72082C202.112 9.48082 201.792 11.2808 200.992 12.8608C200.052 14.7408 198.712 15.9208 197.152 17.2608C196.252 16.2208 195.592 15.8008 194.452 15.0808C195.652 14.2808 196.912 13.2208 197.692 12.0008C198.432 10.8408 198.672 9.26082 198.672 7.90082V2.02082Z" fill="black"/>
<path d="M175.732 8.2002H193.112V11.6002H175.732V8.2002Z" fill="black"/>
<path d="M165.692 4.66031V7.72031H173.652V10.6003H165.692V13.4403C165.692 15.0603 165.772 15.0803 168.652 15.0803C169.712 15.0803 171.332 15.0403 172.672 15.0003C172.612 15.6003 172.572 16.4603 172.572 16.8603C172.572 17.1803 172.592 17.6003 172.632 17.9403C171.692 17.9603 170.392 17.9603 169.092 17.9603C167.792 17.9603 166.532 17.9403 165.672 17.8803C164.992 17.8403 164.132 17.6203 163.592 17.2203C162.492 16.3803 162.372 15.3803 162.372 14.1003V10.6003H156.372V7.72031H162.372V4.66031H158.272V1.82031H171.792V4.66031H165.692Z" fill="black"/>
<path d="M139.23 1.30078C141.01 2.22078 142.77 3.20078 144.23 4.58078C143.53 5.44078 142.91 6.36078 142.29 7.30078C140.73 5.96078 139.13 4.94078 137.25 4.10078L139.23 1.30078ZM137.59 15.1208C143.75 13.8408 149.17 9.66078 152.47 4.36078C153.15 5.48078 153.63 6.14078 154.53 7.08078C152.77 9.70078 150.85 11.8408 148.31 13.7408C145.97 15.5008 142.85 17.2208 140.07 18.2008C140.05 18.3808 140.01 18.6408 139.79 18.6408C139.63 18.6408 139.55 18.5008 139.47 18.3608L137.59 15.1208Z" fill="black"/>
<path d="M126.54 10.7404C124.58 13.2604 122.22 15.2204 119.4 16.6804C118.88 15.7804 118.1 14.7604 117.24 14.1404C120.26 12.8604 123.18 10.4804 125 7.76035H117.58V4.74035H126.54V0.860352L129.88 1.06035C130.18 1.08035 130.28 1.12035 130.28 1.28035C130.28 1.46035 130.08 1.56035 129.88 1.64035V4.74035H134.02V7.76035H129.88V16.0004C129.88 16.7004 129.78 17.3204 129.24 17.8204C128.5 18.5004 126.94 18.7204 125.96 18.7204C125.82 18.7204 125.72 18.7204 125.34 18.7004C125.1 17.3004 124.88 16.5404 124.18 15.3204C124.92 15.4804 125.26 15.5404 125.68 15.5404C126.52 15.5404 126.54 15.1204 126.54 14.3604V10.7404Z" fill="black"/>
<path d="M109.361 7.12082V18.6208H105.921V9.52082C104.141 10.6008 102.321 11.6008 100.381 12.3608C99.801 11.2608 98.921 10.2808 97.981 9.50082C100.581 8.76082 103.461 7.38082 105.681 5.82082C107.681 4.44082 110.101 2.24082 111.601 0.34082L114.341 2.50082C114.441 2.58082 114.501 2.70082 114.501 2.82082C114.501 3.00082 114.341 3.08082 114.181 3.08082C114.121 3.08082 113.961 3.06082 113.781 3.02082C112.721 4.30082 110.681 6.06082 109.361 7.12082Z" fill="black"/>
<path d="M89.8561 5.08067C89.8561 3.80067 89.8561 2.48066 89.8761 1.18066L93.3961 1.78066C93.5361 1.80066 93.6561 1.86066 93.6561 2.00066C93.6561 2.24066 93.3761 2.30066 93.1961 2.32066C93.0961 3.12066 93.0361 3.92066 92.9961 4.72066C94.0561 4.52067 94.9361 4.32066 95.9561 3.98067V7.00066C94.9561 7.24066 93.9361 7.46066 92.9161 7.64067C92.9161 8.94067 93.0161 10.9807 93.2361 12.2407C94.4361 12.6407 96.1361 13.4207 97.0361 14.3007C96.5961 15.1007 96.2561 15.8407 95.6761 17.1207C95.0361 16.5007 94.3761 15.9607 93.5361 15.6007C93.4561 17.8607 91.4761 18.4607 89.5561 18.4607C88.2761 18.4607 87.0961 18.1607 86.1161 17.2807C85.4561 16.6807 85.1361 15.8607 85.1361 14.9607C85.1361 12.5607 87.5761 11.7407 89.5961 11.7407H90.0961C90.0161 10.7407 89.9161 9.08066 89.8761 8.04066C89.1161 8.10067 88.3561 8.14067 87.5761 8.14067C87.0961 8.14067 86.5961 8.12066 86.0961 8.08066V4.94066C87.0361 5.06066 87.9361 5.10067 88.7761 5.10067C89.1161 5.10067 89.4161 5.10067 89.8561 5.08067ZM80.6961 1.24066L83.8961 2.22066C84.0361 2.26066 84.1561 2.34066 84.1561 2.46066C84.1561 2.72066 83.8561 2.78067 83.5961 2.80066C82.8961 5.24066 82.3961 7.96066 82.3961 10.5007C82.3961 11.2207 82.4361 11.7807 82.5361 12.5007C82.8361 12.0207 83.1761 11.5207 83.4761 11.0807C83.8561 11.8207 84.3361 12.4407 84.9161 13.0607C83.9361 14.5207 83.2361 16.1807 83.2561 17.9607L80.5761 18.4607C79.8361 15.8407 79.4961 13.1207 79.4961 10.3807C79.4961 7.40067 79.8961 4.12066 80.6961 1.24066ZM90.4761 14.4207C90.0761 14.2607 89.6961 14.1807 89.2561 14.1807C88.7961 14.1807 87.8561 14.3207 87.8561 14.9407C87.8561 15.5407 88.6961 15.6807 89.1561 15.6807C89.9161 15.6807 90.4961 15.4007 90.4961 14.6807C90.4961 14.6007 90.4961 14.5407 90.4761 14.4207Z" fill="black"/>
<path d="M73.6199 0.160156L76.4599 2.36016C76.6199 2.48016 76.6599 2.56016 76.6599 2.66016C76.6599 2.80016 76.5399 2.88016 76.4199 2.88016C76.3199 2.88016 76.1799 2.84016 76.0799 2.80016C75.5399 3.24016 74.7799 3.86016 74.0999 4.42016C71.9599 6.22016 70.5799 7.36016 68.9599 8.70016C68.3999 9.16016 68.2599 9.38016 68.2599 9.52016C68.2599 9.70016 68.3599 9.80016 68.8399 10.0802C70.7999 11.2202 75.2399 14.4802 76.9599 16.7802C75.9999 17.6402 75.3599 18.4202 74.6599 19.4802C72.6799 16.7002 67.4599 12.6802 64.7799 11.0202C64.1599 10.6402 63.8999 10.2002 63.8999 9.70016C63.8999 9.00016 64.3599 8.62016 65.5799 7.68016C68.3799 5.50016 71.6599 2.58016 73.6199 0.160156Z" fill="black"/>
<path d="M48.2601 0.920898L51.9001 1.4609C52.2201 1.5009 52.3601 1.5609 52.3601 1.7409C52.3601 1.9409 52.1401 2.0209 51.9801 2.0809C51.5001 4.5009 51.3401 7.5609 51.3401 10.0409C51.3401 11.1209 51.3601 13.4609 51.7401 14.4009C52.0401 15.1809 52.5601 15.4009 53.3601 15.4009C54.8801 15.4009 56.7001 14.2209 57.7201 13.1409C58.5601 12.2809 59.7801 10.7409 60.3001 9.6609C61.0201 10.6409 61.7601 11.4809 62.6201 12.2809C60.5001 15.7009 57.1401 18.7609 52.9001 18.7609C50.7201 18.7609 49.1601 17.7609 48.5801 15.6009C48.1401 13.9209 48.1001 11.7409 48.1001 10.0009C48.1001 8.9009 48.1201 8.1609 48.1801 6.9209C48.2401 5.5209 48.3001 3.9609 48.3001 2.7609C48.3001 2.1409 48.3001 1.5409 48.2601 0.920898Z" fill="black"/>
<path d="M37.7 3.84043H39.54C40.1 2.84043 40.64 1.54043 40.96 0.44043L43.74 1.52043C43.88 1.58043 44.1 1.68043 44.1 1.84043C44.1 2.02043 43.94 2.06043 43.46 2.14043C43.2 2.72043 42.9 3.30043 42.58 3.84043H44.28V6.28043H40.84V8.02043H43.84V10.3804H40.84V12.2004H44.72V14.7204H40.84V19.0404H37.86V14.7204H34.34V12.2004H37.86V10.3804H34.98V8.02043H37.86V6.28043H34.52V3.84043H36.12C35.66 3.14043 35.14 2.48043 34.56 1.86043L36.84 0.50043C37.62 1.34043 38.3 2.14043 38.9 3.12043C38.5 3.34043 38.1 3.58043 37.7 3.84043ZM27.32 1.26043H33.26V3.30043H27.32V1.26043ZM26.52 3.84043H33.98V5.90043H26.52V3.84043ZM27.32 6.46043H33.26V8.52043H27.32V6.46043ZM27.32 9.10043H33.26V11.1604H27.32V9.10043ZM31.3 18.1804H29.62V19.0604H26.96V11.8004H33.88V18.7204H31.3V18.1804ZM31.3 15.9404V14.1804H29.62V15.9404H31.3Z" fill="black"/>
<path d="M17.8802 3.94004C17.8802 4.96004 17.0402 5.82004 16.0002 5.82004C14.9602 5.82004 14.1202 4.96004 14.1202 3.94004C14.1202 2.90004 14.9602 2.04004 16.0002 2.04004C17.0402 2.04004 17.8802 2.90004 17.8802 3.94004ZM23.4402 15.84L21.9602 17.32L16.0002 11.28L10.0402 17.32L8.56016 15.84L14.6002 9.88004L8.56016 3.92004L10.0402 2.44004L16.0002 8.48004L21.9602 2.44004L23.4402 3.92004L17.4002 9.88004L23.4402 15.84ZM11.9402 9.88004C11.9402 10.92 11.0802 11.76 10.0602 11.76C9.02016 11.76 8.16016 10.92 8.16016 9.88004C8.16016 8.84004 9.02016 8.00004 10.0602 8.00004C11.0802 8.00004 11.9402 8.84004 11.9402 9.88004ZM23.8402 9.88004C23.8402 10.92 22.9802 11.76 21.9402 11.76C20.9202 11.76 20.0602 10.92 20.0602 9.88004C20.0602 8.84004 20.9202 8.00004 21.9402 8.00004C22.9802 8.00004 23.8402 8.84004 23.8402 9.88004ZM17.8802 15.82C17.8802 16.86 17.0402 17.72 16.0002 17.72C14.9602 17.72 14.1202 16.86 14.1202 15.82C14.1202 14.8 14.9602 13.94 16.0002 13.94C17.0402 13.94 17.8802 14.8 17.8802 15.82Z" fill="black"/>
</svg>
